<?xml version="1.0" encoding="UTF-8"?>
<svg id="Layer_1" data-name="Layer 1" xmlns="http://www.w3.org/2000/svg" viewBox="0 0 1279.99 1486">
  <defs>
    <style>
      .cls-1 {
        fill: #213463;
      }

      .cls-2 {
        fill: #c7203d;
      }

      .cls-3 {
        fill: #ef4040;
      }
    </style>
  </defs>
  <path class="cls-3" d="m227.38,532.42c77.99,7,159.64,7.95,235.13-15.31,59.95-18.48,118.7-40.55,177.49-62.36,58.79-21.81,117.54-43.89,177.49-62.36,75.49-23.27,157.14-22.31,235.12-15.31,110.48,13.01,228.19-16.62,227.37-149.69h0C1279.74,97.92,1181.51-.23,1052.61,0H227.38C108.67.17-.3,108.82.02,227.37H.02c1.11,119.88,95.39,292.13,227.36,305.05Z"/>
  <path class="cls-2" d="m227.38,1055.85c151.15,13.79,274.61-30.45,412.62-85.48,138.01-55.02,261.46-99.27,412.61-85.48,99.99,12.09,229-19.25,227.37-141.9h0c.97-129.37-88.96-294.21-227.37-312.85-151.15-13.79-274.6,30.45-412.61,85.47-138.01,55.03-261.47,99.27-412.62,85.48C127.24,588.99-1.61,620.54.02,743H.02c1.68,126.3,86.83,298.3,227.36,312.85Z"/>
  <path class="cls-1" d="m227.38,1486c275.08,0,550.15,0,825.23,0,118.71-.17,227.68-108.82,227.37-227.37h0c1.38-122.7-97.24-288.16-227.37-305.05-77.98-7-159.63-7.95-235.12,15.31-59.95,18.48-118.7,40.55-177.49,62.36-58.79,21.81-117.54,43.89-177.49,62.36-75.49,23.27-157.14,22.31-235.13,15.31C116.59,1095.89-.8,1125.98.02,1258.63H.02c.24,129.45,98.46,227.6,227.36,227.37Z"/>
</svg>