<?xml version="1.0" encoding="UTF-8"?>
<svg id="Layer_1" data-name="Layer 1" xmlns="http://www.w3.org/2000/svg" viewBox="0 0 1280 124.6">
  <defs>
    <style>
      .cls-1 {
        fill: #213463;
      }

      .cls-2 {
        fill: #c7203d;
      }

      .cls-3 {
        fill: #ef4040;
      }

      .cls-4 {
        fill: #c7203e;
      }
    </style>
  </defs>
  <g>
    <path class="cls-1" d="m187.45,114.79c-12.82,0-22.71-3.24-29.69-9.72-6.98-6.48-10.47-15.78-10.47-27.92s3.23-21,9.68-27.54c6.45-6.55,15.68-9.82,27.68-9.82,7.32,0,13.58,1.4,18.78,4.19,5.2,2.8,8.9,6.74,11.08,11.83l-12.48,9.75c-2-3.23-4.57-5.72-7.7-7.47-3.14-1.75-6.55-2.62-10.23-2.62-6.09,0-10.82,1.82-14.18,5.45-3.36,3.64-5.05,8.82-5.05,15.54,0,7.36,2.09,12.98,6.27,16.84,4.18,3.86,10.16,5.8,17.93,5.8,3.32,0,6.62-.16,9.92-.48,3.29-.32,6.51-.75,9.65-1.3l1.77,15.41c-3.68.82-7.5,1.36-11.45,1.64-3.95.27-7.8.41-11.52.41Z"/>
    <path class="cls-1" d="m261.42,114.79c-10.23,0-18.17-3.27-23.83-9.82s-8.49-15.77-8.49-27.68,2.83-21.19,8.49-27.71c5.66-6.52,13.6-9.78,23.83-9.78s18.23,3.26,23.86,9.78c5.64,6.52,8.45,15.76,8.45,27.71s-2.82,21.14-8.45,27.68c-5.64,6.55-13.59,9.82-23.86,9.82Zm0-15.68c4.68,0,8.28-1.9,10.81-5.69,2.52-3.79,3.78-9.17,3.78-16.12s-1.26-12.38-3.78-16.16c-2.52-3.77-6.13-5.66-10.81-5.66s-8.23,1.89-10.77,5.66c-2.55,3.77-3.82,9.16-3.82,16.16s1.27,12.33,3.82,16.12c2.54,3.8,6.14,5.69,10.77,5.69Z"/>
    <path class="cls-1" d="m336.76,114.79c-9.18,0-16.24-3.18-21.17-9.54-4.93-6.36-7.4-15.57-7.4-27.61s2.46-21.59,7.4-28.09c4.93-6.5,12.01-9.75,21.24-9.75,5.32,0,9.48,1.23,12.48,3.68,3,2.45,4.86,6.05,5.59,10.77h5.86l-4.23,22.09c0-7.18-1.3-12.51-3.89-15.99s-6.43-5.22-11.52-5.22-8.9,1.93-11.56,5.8c-2.66,3.86-3.99,9.43-3.99,16.7s1.32,12.61,3.95,16.29c2.64,3.68,6.5,5.52,11.59,5.52,5.45,0,9.39-1.73,11.79-5.18,2.41-3.45,3.61-8.77,3.61-15.95l4.91,22.02h-6.34c-.64,4.73-2.55,8.32-5.73,10.77-3.18,2.45-7.39,3.68-12.61,3.68Zm21.95-.68l-2.18-14.25V11.16h16.84v102.27l-14.66.68Z"/>
    <path class="cls-1" d="m431.66,114.79c-12.41,0-22-3.24-28.77-9.72-6.77-6.48-10.16-15.78-10.16-27.92s2.87-21,8.62-27.54c5.75-6.55,13.85-9.82,24.31-9.82s17.9,3,23.42,9c5.52,6,8.28,14.7,8.28,26.11,0,3.32-.14,6.43-.41,9.34h-52.09v-12.14h36.41c0-5.5-1.36-9.73-4.09-12.68-2.73-2.95-6.52-4.43-11.39-4.43-5.32,0-9.45,1.86-12.41,5.59-2.96,3.73-4.43,9.02-4.43,15.89,0,7.41,2.11,13.06,6.34,16.94,4.23,3.89,10.23,5.83,18,5.83,3.18,0,6.31-.17,9.37-.51s6.19-.81,9.37-1.4l1.77,15.54c-4.5.82-8.6,1.34-12.31,1.57-3.71.23-6.99.34-9.85.34Z"/>
    <path class="cls-1" d="m501.27,114.79c-5.5,0-10.29-.17-14.39-.51s-7.75-.85-10.98-1.53l1.98-15.82c5.32.73,9.89,1.27,13.7,1.64,3.82.36,7.04.55,9.68.55,6.5,0,11.2-.55,14.11-1.64,2.91-1.09,4.36-2.82,4.36-5.18,0-1.5-.43-2.66-1.3-3.48-.86-.82-2.23-1.48-4.09-1.98l-20.39-5.8c-5.73-1.59-9.99-3.78-12.78-6.58s-4.19-6.74-4.19-11.83c0-7.82,3.17-13.58,9.51-17.28,6.34-3.7,16.21-5.56,29.62-5.56,3.27,0,6.51.11,9.72.34,3.2.23,6.56.57,10.06,1.02l-1.77,15.27c-3.95-.36-7.42-.61-10.4-.75-2.98-.14-5.65-.2-8.01-.2-7.36,0-12.7.52-16.02,1.57-3.32,1.05-4.98,2.73-4.98,5.05,0,1.55.5,2.68,1.5,3.41,1,.73,2.54,1.36,4.64,1.91l17.04,4.7c6.77,1.77,11.78,4.22,15.03,7.33,3.25,3.11,4.87,7.37,4.87,12.78,0,7.73-2.97,13.42-8.9,17.08-5.93,3.66-15.15,5.49-27.65,5.49Z"/>
    <path class="cls-4" d="m583.09,114.79c-5.5,0-10.29-.17-14.39-.51s-7.75-.85-10.98-1.53l1.98-15.82c5.32.73,9.89,1.27,13.7,1.64,3.82.36,7.04.55,9.68.55,6.5,0,11.2-.55,14.11-1.64,2.91-1.09,4.36-2.82,4.36-5.18,0-1.5-.43-2.66-1.3-3.48-.86-.82-2.23-1.48-4.09-1.98l-20.39-5.8c-5.73-1.59-9.99-3.78-12.78-6.58-2.8-2.8-4.19-6.74-4.19-11.83,0-7.82,3.17-13.58,9.51-17.28,6.34-3.7,16.21-5.56,29.62-5.56,3.27,0,6.51.11,9.72.34,3.2.23,6.56.57,10.06,1.02l-1.77,15.27c-3.95-.36-7.42-.61-10.4-.75-2.98-.14-5.65-.2-8.01-.2-7.36,0-12.7.52-16.02,1.57-3.32,1.05-4.98,2.73-4.98,5.05,0,1.55.5,2.68,1.5,3.41,1,.73,2.54,1.36,4.64,1.91l17.04,4.7c6.77,1.77,11.78,4.22,15.03,7.33,3.25,3.11,4.87,7.37,4.87,12.78,0,7.73-2.97,13.42-8.9,17.08-5.93,3.66-15.15,5.49-27.65,5.49Z"/>
    <path class="cls-4" d="m633.67,56.09v-14.93h66.81v14.93h-66.81Zm17.66,22.57V19.35h16.77v59.31h-16.77Zm33.61,36.13c-11.86,0-20.43-2.41-25.7-7.23-5.27-4.82-7.91-12.52-7.91-23.11v-10.57h16.77v9.2c0,5.59,1.41,9.66,4.23,12.2,2.82,2.55,7.48,3.82,13.98,3.82,2.14,0,4.43-.12,6.89-.37,2.45-.25,5.25-.58,8.39-.99l1.64,15.41c-3.05.55-6.03.95-8.97,1.23-2.93.27-6.03.41-9.31.41Z"/>
    <path class="cls-4" d="m741.33,114.79c-7.64,0-13.56-1.86-17.76-5.59-4.2-3.73-6.31-9-6.31-15.82,0-7.91,2.82-13.98,8.45-18.2,5.64-4.23,13.61-6.34,23.93-6.34,4.09,0,7.68.23,10.77.68,3.09.45,6.04,1.16,8.86,2.11l-3,12.54c-2.96-.68-5.7-1.08-8.25-1.19-2.55-.11-5.21-.17-7.98-.17-10.73,0-16.09,3.16-16.09,9.48,0,2.77.94,4.89,2.83,6.34,1.89,1.46,4.62,2.18,8.22,2.18,4.18,0,7.68-.76,10.5-2.28,2.82-1.52,4.93-3.45,6.34-5.8,1.41-2.34,2.11-4.76,2.11-7.26v-5.86l3.27,18.54h-5.8l2.39-2.18c-.09,4.18-1.06,7.67-2.9,10.47-1.84,2.8-4.42,4.89-7.74,6.27-3.32,1.39-7.27,2.08-11.86,2.08Zm24.88-.68l-1.3-21.41-.95-8.04v-15.95c0-4.23-1.66-7.33-4.98-9.31-3.32-1.98-8.27-3.06-14.86-3.24l-18-.48,1.36-15.2,15.27.2c12.64.18,22.02,2.76,28.16,7.74s9.2,12.24,9.2,21.78v28.09l10.91,1.5v13.64l-24.82.68Z"/>
    <path class="cls-4" d="m841.96,114.79c-12.82,0-22.71-3.24-29.69-9.72-6.98-6.48-10.47-15.78-10.47-27.92s3.23-21,9.68-27.54c6.45-6.55,15.68-9.82,27.68-9.82,7.32,0,13.58,1.4,18.78,4.19,5.2,2.8,8.9,6.74,11.08,11.83l-12.48,9.75c-2-3.23-4.57-5.72-7.7-7.47-3.14-1.75-6.55-2.62-10.23-2.62-6.09,0-10.82,1.82-14.18,5.45-3.36,3.64-5.05,8.82-5.05,15.54,0,7.36,2.09,12.98,6.27,16.84,4.18,3.86,10.16,5.8,17.93,5.8,3.32,0,6.62-.16,9.92-.48,3.29-.32,6.51-.75,9.65-1.3l1.77,15.41c-3.68.82-7.5,1.36-11.45,1.64-3.95.27-7.8.41-11.52.41Z"/>
    <path class="cls-4" d="m885.25,113.43V11.16h16.84v102.27h-16.84Zm10.91-26.38v-15.68h8.18c5.64,0,10.27-.98,13.91-2.93,3.64-1.95,6.5-5.15,8.59-9.58,2.09-4.43,3.61-10.33,4.57-17.69h17.39c-1.91,15.41-6.26,26.91-13.06,34.5-6.8,7.59-16.12,11.39-27.99,11.39h-11.59Zm37.02,26.38l-18.89-35.18,15.34-5.59,23.79,40.77h-20.25Z"/>
    <path class="cls-3" d="m960.79,70.55v-14.18h68.18v14.18h-68.18Zm22.29,42.88V47.3c0-25,11.79-37.5,35.38-37.5,5.41,0,10.64.45,15.68,1.36l-1.64,15.27c-3-.36-5.64-.61-7.91-.75-2.27-.14-4.46-.2-6.55-.2-12.14,0-18.2,7.05-18.2,21.14v66.81h-16.77Z"/>
    <path class="cls-3" d="m1044.65,26.1v-14.93h22.02v14.93h-22.02Zm45.68,88.7c-8.82,0-15.17-2.41-19.06-7.23-3.89-4.82-5.83-12.52-5.83-23.11V11.16h16.77v72.61c0,3.32.34,6.03,1.02,8.15s1.99,3.67,3.92,4.67c1.93,1,4.81,1.5,8.62,1.5s8.86-.86,14.86-2.59l1.91,16.43c-3.77,1-7.42,1.73-10.94,2.18-3.52.45-7.28.68-11.28.68Z"/>
    <path class="cls-3" d="m1161.37,114.79c-10.23,0-18.17-3.27-23.83-9.82-5.66-6.55-8.49-15.77-8.49-27.68s2.83-21.19,8.49-27.71c5.66-6.52,13.6-9.78,23.83-9.78s18.23,3.26,23.86,9.78c5.64,6.52,8.45,15.76,8.45,27.71s-2.82,21.14-8.45,27.68c-5.64,6.55-13.59,9.82-23.86,9.82Zm0-15.68c4.68,0,8.28-1.9,10.81-5.69,2.52-3.79,3.78-9.17,3.78-16.12s-1.26-12.38-3.78-16.16c-2.52-3.77-6.13-5.66-10.81-5.66s-8.23,1.89-10.77,5.66c-2.55,3.77-3.82,9.16-3.82,16.16s1.27,12.33,3.82,16.12c2.54,3.8,6.14,5.69,10.77,5.69Z"/>
    <path class="cls-3" d="m1212.5,113.43l-6.14-72.27h16.23l3.68,57.61h1.23l8.39-57.61h13.23l-6.07,16.64h-.95l-7.77,55.63h-21.82Zm38.18,0l-7.77-55.63h-1.09l-5.93-16.64h13.23l8.39,57.61h1.23l5.11-57.61h16.16l-8.18,72.27h-21.14Z"/>
  </g>
  <g>
    <path class="cls-3" d="m19.06,44.64c6.54.59,13.38.67,19.71-1.28,5.03-1.55,9.95-3.4,14.88-5.23,4.93-1.83,9.86-3.68,14.88-5.23,6.33-1.95,13.18-1.87,19.71-1.28,9.26,1.09,19.13-1.39,19.06-12.55h0C107.3,8.21,99.07-.02,88.26,0H19.06C9.11.01-.02,9.12,0,19.06H0c.09,10.05,8,24.49,19.06,25.58Z"/>
    <path class="cls-2" d="m19.06,88.53c12.67,1.16,23.03-2.55,34.6-7.17,11.57-4.61,21.92-8.32,34.6-7.17,8.38,1.01,19.2-1.61,19.06-11.9h0c.08-10.85-7.46-24.67-19.06-26.23-12.67-1.16-23.02,2.55-34.6,7.17-11.57,4.61-21.92,8.32-34.6,7.17C10.67,49.38-.14,52.03,0,62.3H0c.14,10.59,7.28,25.01,19.06,26.23Z"/>
    <path class="cls-1" d="m19.06,124.6c23.06,0,46.13,0,69.19,0,9.95-.01,19.09-9.12,19.06-19.06h0c.12-10.29-8.15-24.16-19.06-25.58-6.54-.59-13.38-.67-19.71,1.28-5.03,1.55-9.95,3.4-14.88,5.23-4.93,1.83-9.86,3.68-14.88,5.23-6.33,1.95-13.18,1.87-19.71,1.28C9.78,91.89-.07,94.41,0,105.53H0c.02,10.85,8.26,19.08,19.06,19.06Z"/>
  </g>
</svg>